<?xml version="1.0" encoding="UTF-8"?>
<svg version="1.1" viewBox="0 0 811.75873 704.71363" xmlns="http://www.w3.org/2000/svg" xmlns:xlink="http://www.w3.org/1999/xlink">
 <defs>
  <filter id="al" color-interpolation-filters="sRGB">
   <feGaussianBlur stdDeviation=".4275"/>
  </filter>
  <filter id="m" color-interpolation-filters="sRGB">
   <feGaussianBlur stdDeviation=".3512"/>
  </filter>
  <filter id="k" color-interpolation-filters="sRGB">
   <feGaussianBlur stdDeviation=".572"/>
  </filter>
  <filter id="l" color-interpolation-filters="sRGB">
   <feGaussianBlur stdDeviation=".307"/>
  </filter>
  <filter id="a" color-interpolation-filters="sRGB"/>
  <filter id="ak" x="-.11196" y="-.08437" width="1.2239" height="1.1687" color-interpolation-filters="sRGB">
   <feGaussianBlur stdDeviation="12.5374"/>
  </filter>
  <filter id="i" x="-.12817" y="-.02953" width="1.2563" height="1.0591" color-interpolation-filters="sRGB">
   <feGaussianBlur stdDeviation=".6504"/>
  </filter>
  <filter id="j" x="-.13075" y="-.13328" width="1.2615" height="1.2665" color-interpolation-filters="sRGB">
   <feGaussianBlur stdDeviation=".6161"/>
  </filter>
  <filter id="h" x="-.02159" y="-.10817" width="1.0432" height="1.2163" color-interpolation-filters="sRGB">
   <feGaussianBlur stdDeviation=".3182"/>
  </filter>
  <linearGradient id="e">
   <stop stop-color="#61b2e7" offset="0"/>
   <stop stop-color="#3771c8" offset="1"/>
  </linearGradient>
  <linearGradient id="d">
   <stop stop-color="#61b2e7" offset="0"/>
   <stop stop-color="#3d8cd7" offset="1"/>
  </linearGradient>
  <linearGradient id="c">
   <stop stop-color="#fff" stop-opacity=".0051" offset="0"/>
   <stop stop-color="#fff" offset="1"/>
  </linearGradient>
  <linearGradient id="b">
   <stop stop-color="#216908" offset="0"/>
   <stop stop-color="#2e3436" offset="1"/>
  </linearGradient>
  <linearGradient id="g">
   <stop stop-color="#fff" offset="0"/>
   <stop stop-color="#fff" stop-opacity="0" offset="1"/>
  </linearGradient>
  <linearGradient id="f">
   <stop stop-color="#fff" stop-opacity="0" offset="0"/>
   <stop stop-color="#fff" stop-opacity=".4949" offset=".5"/>
   <stop stop-color="#fff" stop-opacity="0" offset="1"/>
  </linearGradient>
  <clipPath id="am">
   <rect x="-2.9735" y="-2.9735" width="811.76" height="704.71" fill="#b3b3b3" opacity=".25197" stroke="#b07f00"/>
  </clipPath>
  <linearGradient id="aj" x1="371.56" x2="233.2" y1="103.64" y2="110.32" gradientUnits="userSpaceOnUse">
   <stop stop-color="#3771c8" offset="0"/>
   <stop stop-color="#61b2e7" offset="1"/>
  </linearGradient>
  <linearGradient id="ai" x1="414.12" x2="415.77" y1="68.351" y2="193.79" gradientUnits="userSpaceOnUse" xlink:href="#e"/>
  <linearGradient id="ah" x1="387.63" x2="385.74" y1="86.024" y2="84.988" gradientUnits="userSpaceOnUse" xlink:href="#d"/>
  <radialGradient id="r" cx="425.05" cy="164.79" r="4.4872" gradientTransform="matrix(2.7147 -.03712 .12248 8.9582 -706.71 -1308.2)" gradientUnits="userSpaceOnUse" xlink:href="#c"/>
  <linearGradient id="ag" x1="494.38" x2="396.05" y1="106.75" y2="217.15" gradientUnits="userSpaceOnUse" xlink:href="#d"/>
  <radialGradient id="q" cx="425.05" cy="164.79" r="4.4872" gradientTransform="matrix(2.7147 -.03712 .12248 8.9582 -720.27 -1301.6)" gradientUnits="userSpaceOnUse" xlink:href="#c"/>
  <radialGradient id="p" cx="425.05" cy="164.79" r="4.4872" gradientTransform="matrix(2.7147 -.03712 .12248 8.9582 -734.56 -1295)" gradientUnits="userSpaceOnUse" xlink:href="#c"/>
  <radialGradient id="o" cx="425.05" cy="164.79" r="4.4872" gradientTransform="matrix(2.7147 -.03712 .12248 8.9582 -747.39 -1289.1)" gradientUnits="userSpaceOnUse" xlink:href="#c"/>
  <linearGradient id="af" x1="439.71" x2="435.69" y1="144.97" y2="118.22" gradientUnits="userSpaceOnUse" xlink:href="#b"/>
  <linearGradient id="ae" x1="499.45" x2="388.79" y1="95.135" y2="145.7" gradientUnits="userSpaceOnUse" xlink:href="#d"/>
  <linearGradient id="ad" x1="377.8" x2="395.66" gradientUnits="userSpaceOnUse">
   <stop stop-color="#3771c8" offset="0"/>
   <stop stop-color="#3771c8" offset=".6794"/>
   <stop stop-color="#fdffff" offset="1"/>
  </linearGradient>
  <linearGradient id="ac" x1="310.63" x2="387.45" gradientUnits="userSpaceOnUse" xlink:href="#b"/>
  <linearGradient id="ab" x1="383.48" x2="270.51" y1="148.21" y2="123.34" gradientUnits="userSpaceOnUse" xlink:href="#e"/>
  <linearGradient id="aa" x1="384.69" x2="397.04" gradientUnits="userSpaceOnUse" xlink:href="#e"/>
  <linearGradient id="z" x1="392.09" x2="389.89" y1="151.93" y2="60.323" gradientUnits="userSpaceOnUse" xlink:href="#g"/>
  <linearGradient id="y" x1="384.68" x2="395.12" gradientUnits="userSpaceOnUse" xlink:href="#f"/>
  <linearGradient id="x" x1="384.69" x2="397.04" gradientUnits="userSpaceOnUse" xlink:href="#f"/>
  <linearGradient id="w" x1="414.81" x2="323.2" y1="58.125" y2="181.98" gradientUnits="userSpaceOnUse" xlink:href="#g"/>
  <linearGradient id="v" x1="330.11" x2="334.25" y1="152.36" y2="135.9" gradientUnits="userSpaceOnUse" xlink:href="#b"/>
  <linearGradient id="u" x1="388.15" x2="480.65" gradientUnits="userSpaceOnUse">
   <stop stop-color="#4d4d4d" stop-opacity="0" offset="0"/>
   <stop stop-color="#4d4d4d" stop-opacity=".5816" offset=".5"/>
   <stop stop-color="#4d4d4d" stop-opacity="0" offset="1"/>
  </linearGradient>
  <linearGradient id="t" x1="409.42" x2="394.71" y1="90.203" y2="94.413" gradientUnits="userSpaceOnUse" xlink:href="#b"/>
  <linearGradient id="s" x1="26.362" x2="37.672" y1="24.227" y2="3.7765" gradientUnits="userSpaceOnUse">
   <stop stop-color="#bbbaff" offset="0"/>
   <stop stop-color="#caedff" offset=".25"/>
   <stop stop-color="#fff" offset=".4502"/>
   <stop stop-color="#caedff" offset=".607"/>
   <stop stop-color="#dddcff" offset=".708"/>
   <stop stop-color="#bbbaff" offset="1"/>
  </linearGradient>
  <radialGradient id="n" cx="66.254" cy="-6.7697" r="1.6842" gradientTransform="matrix(1 0 0 1.4059 0 2.5507)" gradientUnits="userSpaceOnUse">
   <stop stop-color="#fff" offset="0"/>
   <stop stop-color="#d3d2ff" offset="1"/>
  </radialGradient>
 </defs>
 <g transform="translate(2.9735 2.9735)" clip-path="url(#am)">
  <g transform="matrix(16.757 0 0 16.757 1.7294 -105.64)" filter="url(#al)" opacity=".5">
   <g transform="matrix(.21615 0 0 .21615 -59.472 -.26436)">
    <path d="m387.42 80.002-32.219 12.767s-1.1737-8.9557-11.005-6.8127c-7.2523 1.5808-8.9057 12.631-10.097 13.731l-44.746 15.714 2.5286 17.435 95.933-42.565c-0.14242 0.11832 0.4925-10.664-0.39482-10.268z" fill-rule="evenodd"/>
    <path d="m388.01 89.898-93.229 41.387 9.1523 66.341 84.637-20.153-0.56031-87.574zm-18.635 10.591-0.1875 52.208-8.4062 3.8438-9e-3 -52.378 8.6023-3.6734zm-14.156 5.3425 0.34375 53.896-8.4375 3.875-0.0668-54.178 8.1605-3.5938zm-14.183 6.9559 0.93322 53.347-9.25 4.5 0.64769-54.119 7.6691-3.7273zm-13.652 6.0668 0.96019 53.905-8.4375 3.875-1.0227-54.119 8.5-3.6605z" fill-rule="evenodd"/>
    <path d="m389.76 79.937c-0.73767 0.22159-1.4554 0.48184-2.1875 0.71875v75.031l5.875 58.625 85-42.5 4.2812-72.5h0.0312l0.78125-5.9375-1.5 0.25c-30.745-4.61-61.436-9.9961-92.281-13.688zm33.125 16.812 23.688 2.5c1e-5 -1e-5 -0.68022 1.2903-1.6562 2.25-1.519 1.36-11.927 1.5134-19.969-0.4375-1.5592-0.99881-2.0625-4.3125-2.0625-4.3125z" fill-rule="evenodd"/>
    <path d="m389.44 75.594c-1.6115 0.04237-3.2188 0.5-3.2188 0.5l-29.312 11.719c1e-5 -2e-6 -4.4819-7.8665-14.281-4.7812-9.37 2.947-10.63 13.937-10.63 13.937l-50.969 17.469c-1e-5 0-1.9466 0.83445-1.0625 2.1875 0.90296 1.382 3.25 1.4062 3.25 1.4062l103.28 18.15c-1e-5 0 3.1345 0.89118 4.3438 0.78125 1.2092-0.10993 4.0938-1.625 4.0938-1.625l40.031-16.75c-1e-5 0 2.6819-10.327 9.5312-13.188 6.9726-2.9117 10.25 3.6562 10.25 3.6562l35-14.656c1e-5 3e-6 2.8688-1.4746 1.7188-2.8438-1.0984-1.3076-5.2812-1.625-5.2812-1.625l-92.75-14.156c-0.0142 0.06206-1.7362-0.09759-3.3125-0.1875-0.22519-0.01284-0.45728-0.0061-0.6875 0zm-0.21875 4.0312c30.95 3.704 61.743 9.1297 92.594 13.75-7.7527 3.3646-15.638 6.4436-23.406 9.7812-2.1611 2.688-3.4798-0.33191-5.4375-1.375-9.4381-4.2373-18.481 4.6711-21.094 13.156-12.831 6.7882-27.65 11.752-41.219 17.906-33.284-5.7599-66.527-11.753-99.812-17.5 13.031-4.5949 26.218-8.8604 39.25-13.5 6.3671-1.271 6.007-6.0937 7.7188-9.8125 2.902-7.4062 15.492-7.498 17.25 0.78125 11.496-4.122 22.454-9.6722 34.156-13.188z" fill-rule="evenodd"/>
    <path d="m467.36 115.38 0.72572 54.685-7.6816 3.8088-0.10787 0.64642 8.4118-3.7685 0.5625-0.21875-0.0312-0.5625-0.52697-55.323-1.3523 0.73286z" fill-rule="evenodd"/>
    <path d="m486.76 106.02-92.312 43.219-0.375 68.906 86.469-45.438 6.2188-66.688zm-17.719 9.125-0.1875 54.406-8.4062 3.8438-0.375-53.844 8.9688-4.4062zm-14.156 6.625 0.34375 54.812-8.4375 3.875-0.25-55.094 8.3438-3.5938zm-14 6.4062 0.75 54.812-9.25 4.5 0.28125-55.219 8.2188-4.0938zm-13.469 6.25 0.59375 55.188-8.4375 3.875-0.65625-55.219 8.5-3.8438z" fill-rule="evenodd"/>
    <path d="m299.72 197.8 85.013 20.52 1.4657-66.691-38.972-6.681s-3.535 6.0149-5.9074 5.6c-2.3538-0.41161-20.469-3.3717-23.493-4.2232-3.1786-0.89518-2.8019-7.7136-2.8019-7.7136l-29.963-5.3041 14.657 64.493z" fill-rule="evenodd"/>
    <path d="m453.8 121.98 0.72572 54.685-7.6816 3.8088-0.10787 0.64642 8.4118-3.7685 0.5625-0.21875-0.0312-0.5625-0.52697-55.323-1.3523 0.73286z" fill-rule="evenodd"/>
    <path d="m439.51 128.57 0.72572 54.685-7.6816 3.8088-0.10787 0.64642 8.4118-3.7685 0.5625-0.21875-0.0312-0.5625-0.52697-55.323-1.3523 0.73286z" fill-rule="evenodd"/>
    <path d="m426.68 134.44 0.72572 54.685-7.6816 3.8088-0.10787 0.64642 8.4118-3.7685 0.5625-0.21875-0.0312-0.5625-0.52697-55.323-1.3523 0.73286z" fill-rule="evenodd"/>
    <path d="m486.06 106.41-92.707 43.075 0.55266 4.7115 91.974-46.525 0.18022-1.2616z" fill-rule="evenodd" filter="url(#m)" opacity=".5"/>
    <path d="m489.23 94.932-35 14.656s-3.2774-6.5679-10.25-3.6562c-6.8494 2.8602-9.5313 13.188-9.5312 13.188l-40.031 16.75-0.0625 0.0312v13.906l96-45.438c1.9304-13.874 3.4343-13.613-1.125-9.4375z" fill-rule="evenodd"/>
    <path d="m385.3 81.36-1.8138 50.267 6.996 1.2956 4.9231-2.0729 0.25911-50.267-6.2186-0.51822-4.1458 1.2956z" fill-rule="evenodd" filter="url(#i)" opacity=".7"/>
    <path d="m387.14 90.101-76.434 33.795-0.0768 3.7864 76.822-36.904-0.31187-0.67713z" fill-rule="evenodd" filter="url(#k)" opacity=".7"/>
    <path d="m279.41 116.64 3.5312 16.531 103.66 19.188v-16.406l-1.125-0.28125-103.28-18.156s-1.7184-0.0157-2.7812-0.875z" fill-rule="evenodd"/>
    <path d="m384.69 135.64 0.13234 16.586s4.7486 0.81125 6.1296 0.65678 6.0958-3.9187 6.0958-3.9187l-0.87527-13.98c-1.332 0.19643-3.9747 2.418-5.7593 1.9991l-5.7232-1.3433z" fill-rule="evenodd"/>
    <path d="m385.31 152.14-0.62792 66.035s4.0639 1.2847 5.5907 1.1946c1.6589-0.0979 4.8418-1.5353 4.8418-1.5353l-0.41146-67.398c-1.3501 0.78349-2.1262 2.1434-4.2091 2.0172l-5.184-0.31397z" fill-rule="evenodd"/>
    <path d="m389.44 75.594c-1.6115 0.04237-3.2188 0.5-3.2188 0.5l-29.312 11.719c1e-5 -2e-6 -4.4819-7.8665-14.281-4.7812-9.37 2.947-10.63 13.937-10.63 13.937l-50.969 17.469c-1e-5 0-1.9466 0.83445-1.0625 2.1875 0.90296 1.382 3.25 1.4062 3.25 1.4062l103.28 18.15c-1e-5 0 3.1345 0.89118 4.3438 0.78125 1.2092-0.10993 4.0938-1.625 4.0938-1.625l40.031-16.75c-1e-5 0 2.6819-10.327 9.5312-13.188 6.9726-2.9117 10.25 3.6562 10.25 3.6562l35-14.656c1e-5 3e-6 2.8688-1.4746 1.7188-2.8438-1.0984-1.3076-5.2812-1.625-5.2812-1.625l-92.75-14.156c-0.0142 0.06206-1.7362-0.09759-3.3125-0.1875-0.22519-0.01284-0.45728-0.0061-0.6875 0zm-0.21875 4.0312c30.95 3.704 61.743 9.1297 92.594 13.75-7.7527 3.3646-15.638 6.4436-23.406 9.7812-2.1611 2.688-3.4798-0.33191-5.4375-1.375-9.4381-4.2373-18.481 4.6711-21.094 13.156-12.831 6.7882-27.65 11.752-41.219 17.906-33.284-5.7599-66.527-11.753-99.812-17.5 13.031-4.5949 26.218-8.8604 39.25-13.5 6.3671-1.271 6.007-6.0937 7.7188-9.8125 2.902-7.4062 15.492-7.498 17.25 0.78125 11.496-4.122 22.454-9.6722 34.156-13.188z" fill-rule="evenodd"/>
    <path d="m385.13 151.41-0.4447 66.768s4.0639 1.2847 5.5907 1.1946c1.6589-0.0979 4.8418-1.5353 4.8418-1.5353l-0.8695-67.948c-1.3501 0.78349-2.133 2.2275-4.2091 2.0172l-4.9092-0.49719z" fill-rule="evenodd"/>
    <path d="m384.69 135.64 0.31556 15.487s4.0157 0.99447 5.3968 0.84c1.381-0.15447 6.6454-3.0026 6.6454-3.0026l-0.87527-13.98c-1.332 0.19643-3.9747 2.418-5.7593 1.9991l-5.7232-1.3433z" fill-rule="evenodd"/>
    <path d="m280.15 117.38 3.5312 16.531 2.1875 0.40625 3.1875 14c45.059 11.391 80.931 33.86 96.688 58.375l1.1875-53.656 0.40625 0.0625v-16.406l-1.125-0.28125-103.28-18.156c1e-5 1e-5 -1.7184-0.0157-2.7812-0.875zm35.625 22.469 32.125 5.9375c-0.17593 0.29644-3.533 5.9041-5.8438 5.5-2.3538-0.41161-20.476-3.3672-23.5-4.2188-2.805-0.78995-2.8115-5.9596-2.7812-7.2188z" fill-rule="evenodd"/>
    <path transform="matrix(1 0 0 .80184 -.40438 29.948)" d="m385.35 151.49c0 7.6802 1.22 8.3937 5.6547 8.3937 4.4348 0 5.6547-3.4128 5.6547-11.093-0.16725-0.0717-1.0902 1.6963-5.838 2.9729-3.0404 0.0154-5.4607-0.18937-5.4715-0.27365z" filter="url(#j)" opacity=".4"/>
    <path d="m285.3 133.42 0.30857 1.1999 100.12 20.935 0.24089-3.9518-100.67-18.183z" fill-rule="evenodd" filter="url(#l)" opacity=".5"/>
    <path d="m387.67 89.645 35.207 6.8371 40.484 4.9689 17.284-7.912s-84.704-13.395-88.615-13.474c-3.6525-0.0731-3.8866 0.25911-3.8866 0.25911l-0.47376 9.3206z" fill-rule="evenodd" opacity=".7"/>
    <path d="m392 89.455c-0.87047-0.06941-1.7386-0.12129-3.042 0.08464s-2.0824 1.0853-2.0824 1.0853l0.1875 0.96875s1.3523 0.18493 2.6341-0.01759 2.5875-0.32627 3.1807-0.27897c1.3676 0.10905 3.6403 0.55567 3.6403 0.55567l25.723 4.6006-2.0797-1-23.04-4.829s-3.5659-1.0456-5.1256-1.1699z" fill-rule="evenodd" filter="url(#h)" opacity=".5"/>
   </g>
   <path d="m16.752 17.633 0.86352 1.0205 8.1642-9.8128c2.8062 0.34859 19.015 2.3378 19.155 3.1401 0.12638 0.72594-8.7922 11.932-8.7922 11.932l0.0785 0.94202 1.099-0.157 9.1848-12.325-0.31401-1.3345c-0.146-0.615-15.007-3.377-20.726-3.3749-1.919 0.8281-8.714 9.9699-8.714 9.9699z" fill-opacity=".4036" fill-rule="evenodd" filter="url(#a)"/>
   <path transform="matrix(.6899 0 0 .67067 -8.3968 28.542)" d="m67.368-6.2834c0 0.93016-0.75405 1.6842-1.6842 1.6842-0.93 0-1.684-0.754-1.684-1.6842 0-0.93016 0.75405-1.6842 1.6842-1.6842 0.93016 0 1.6842 0.75405 1.6842 1.6842z" fill-opacity=".4036" opacity=".7"/>
   <g transform="translate(.38866 -.32389)" fill-rule="evenodd">
    <path d="m16.363 17.957 0.86352 1.0205 8.1642-9.8128c2.8062 0.34859 19.015 2.3378 19.155 3.1401 0.12638 0.72594-8.7922 11.932-8.7922 11.932l0.0785 0.94202 1.099-0.157 9.1848-12.325-0.31401-1.3345c-0.145-0.615-15.006-3.3771-20.725-3.375-1.9186 0.82807-8.7137 9.9698-8.7137 9.9698z"/>
    <path d="m16.972 18.138 7.967-9.4578" filter="url(#a)" stroke="#FFF" stroke-opacity=".6536" stroke-width=".5"/>
    <path transform="matrix(.87605 0 0 .87605 4.4975 3.0821)" d="m36.534 24.615 8.907-12.243" filter="url(#a)" stroke="#FFF" stroke-opacity=".675" stroke-width=".5"/>
   </g>
   <path transform="matrix(.6899 0 0 .67067 -30.062 24.649)" d="m67.368-6.2834c0 0.93016-0.75405 1.6842-1.6842 1.6842-0.93 0-1.684-0.754-1.684-1.6842 0-0.93016 0.75405-1.6842 1.6842-1.6842 0.93016 0 1.6842 0.75405 1.6842 1.6842z" fill-opacity=".4036" opacity=".7"/>
   <path transform="matrix(.48242 0 0 .46897 -16.371 23.309)" d="m67.368-6.2834c0 0.93016-0.75405 1.6842-1.6842 1.6842-0.93 0-1.684-0.754-1.684-1.6842 0-0.93016 0.75405-1.6842 1.6842-1.6842 0.93016 0 1.6842 0.75405 1.6842 1.6842z"/>
  </g>
  <g transform="matrix(16.757 0 0 16.757 3.9004 -125.11)">
   <g transform="matrix(.21615 0 0 .21615 -59.472 -.26436)">
    <path d="m387.42 80.002-32.219 12.767s-1.1737-8.9557-11.005-6.8127c-7.2523 1.5808-8.9057 12.631-10.097 13.731l-44.746 15.714 2.5286 17.435 95.933-42.565c-0.14242 0.11832 0.4925-10.664-0.39482-10.268z" fill="url(#aj)" fill-rule="evenodd"/>
    <path d="m388.01 89.898-93.229 41.387 9.1523 66.341 84.637-20.153-0.56031-87.574zm-18.635 10.591-0.1875 52.208-8.4062 3.8438-9e-3 -52.378 8.6023-3.6734zm-14.156 5.3425 0.34375 53.896-8.4375 3.875-0.0668-54.178 8.1605-3.5938zm-14.183 6.9559 0.93322 53.347-9.25 4.5 0.64769-54.119 7.6691-3.7273zm-13.652 6.0668 0.96019 53.905-8.4375 3.875-1.0227-54.119 8.5-3.6605z" fill="#3771c8" fill-rule="evenodd"/>
    <path d="m389.76 79.937c-0.73767 0.22159-1.4554 0.48184-2.1875 0.71875v75.031l5.875 58.625 85-42.5 4.2812-72.5h0.0312l0.78125-5.9375-1.5 0.25c-30.745-4.61-61.436-9.9961-92.281-13.688zm33.125 16.812 23.688 2.5c1e-5 -1e-5 -0.68022 1.2903-1.6562 2.25-1.519 1.36-11.927 1.5134-19.969-0.4375-1.5592-0.99881-2.0625-4.3125-2.0625-4.3125z" fill="url(#ai)" fill-rule="evenodd"/>
    <path d="m389.44 75.594c-1.6115 0.04237-3.2188 0.5-3.2188 0.5l-29.312 11.719c1e-5 -2e-6 -4.4819-7.8665-14.281-4.7812-9.37 2.947-10.63 13.937-10.63 13.937l-50.969 17.469c-1e-5 0-1.9466 0.83445-1.0625 2.1875 0.90296 1.382 3.25 1.4062 3.25 1.4062l103.28 18.15c-1e-5 0 3.1345 0.89118 4.3438 0.78125 1.2092-0.10993 4.0938-1.625 4.0938-1.625l40.031-16.75c-1e-5 0 2.6819-10.327 9.5312-13.188 6.9726-2.9117 10.25 3.6562 10.25 3.6562l35-14.656c1e-5 3e-6 2.8688-1.4746 1.7188-2.8438-1.0984-1.3076-5.2812-1.625-5.2812-1.625l-92.75-14.156c-0.0142 0.06206-1.7362-0.09759-3.3125-0.1875-0.22519-0.01284-0.45728-0.0061-0.6875 0zm-0.21875 4.0312c30.95 3.704 61.743 9.1297 92.594 13.75-7.7527 3.3646-15.638 6.4436-23.406 9.7812-2.1611 2.688-3.4798-0.33191-5.4375-1.375-9.4381-4.2373-18.481 4.6711-21.094 13.156-12.831 6.7882-27.65 11.752-41.219 17.906-33.284-5.7599-66.527-11.753-99.812-17.5 13.031-4.5949 26.218-8.8604 39.25-13.5 6.3671-1.271 6.007-6.0937 7.7188-9.8125 2.902-7.4062 15.492-7.498 17.25 0.78125 11.496-4.122 22.454-9.6722 34.156-13.188z" fill="url(#ah)" fill-rule="evenodd"/>
    <path d="m467.36 115.38 0.72572 54.685-7.6816 3.8088-0.10787 0.64642 8.4118-3.7685 0.5625-0.21875-0.0312-0.5625-0.52697-55.323-1.3523 0.73286z" fill="url(#r)" fill-rule="evenodd"/>
    <path d="m486.76 106.02-92.312 43.219-0.375 68.906 86.469-45.438 6.2188-66.688zm-17.719 9.125-0.1875 54.406-8.4062 3.8438-0.375-53.844 8.9688-4.4062zm-14.156 6.625 0.34375 54.812-8.4375 3.875-0.25-55.094 8.3438-3.5938zm-14 6.4062 0.75 54.812-9.25 4.5 0.28125-55.219 8.2188-4.0938zm-13.469 6.25 0.59375 55.188-8.4375 3.875-0.65625-55.219 8.5-3.8438z" fill="url(#ag)" fill-rule="evenodd"/>
    <path d="m299.72 197.8 85.013 20.52 1.4657-66.691-38.972-6.681s-3.535 6.0149-5.9074 5.6c-2.3538-0.41161-20.469-3.3717-23.493-4.2232-3.1786-0.89518-2.8019-7.7136-2.8019-7.7136l-29.963-5.3041 14.657 64.493z" fill="#3d8cd7" fill-rule="evenodd"/>
    <path d="m453.8 121.98 0.72572 54.685-7.6816 3.8088-0.10787 0.64642 8.4118-3.7685 0.5625-0.21875-0.0312-0.5625-0.52697-55.323-1.3523 0.73286z" fill="url(#q)" fill-rule="evenodd"/>
    <path d="m439.51 128.57 0.72572 54.685-7.6816 3.8088-0.10787 0.64642 8.4118-3.7685 0.5625-0.21875-0.0312-0.5625-0.52697-55.323-1.3523 0.73286z" fill="url(#p)" fill-rule="evenodd"/>
    <path d="m426.68 134.44 0.72572 54.685-7.6816 3.8088-0.10787 0.64642 8.4118-3.7685 0.5625-0.21875-0.0312-0.5625-0.52697-55.323-1.3523 0.73286z" fill="url(#o)" fill-rule="evenodd"/>
    <path d="m486.06 106.41-92.707 43.075 0.55266 4.7115 91.974-46.525 0.18022-1.2616z" fill="url(#af)" fill-rule="evenodd" filter="url(#m)" opacity=".5"/>
    <path d="m489.23 94.932-35 14.656s-3.2774-6.5679-10.25-3.6562c-6.8494 2.8602-9.5313 13.188-9.5312 13.188l-40.031 16.75-0.0625 0.0312v13.906l96-45.438c1.9304-13.874 3.4343-13.613-1.125-9.4375z" fill="url(#ae)" fill-rule="evenodd"/>
    <path d="m385.3 81.36-1.8138 50.267 6.996 1.2956 4.9231-2.0729 0.25911-50.267-6.2186-0.51822-4.1458 1.2956z" fill="url(#ad)" fill-rule="evenodd" filter="url(#i)" opacity=".7"/>
    <path d="m387.14 90.101-76.434 33.795-0.0768 3.7864 76.822-36.904-0.31187-0.67713z" fill="url(#ac)" fill-rule="evenodd" filter="url(#k)" opacity=".7"/>
    <path d="m279.41 116.64 3.5312 16.531 103.66 19.188v-16.406l-1.125-0.28125-103.28-18.156s-1.7184-0.0157-2.7812-0.875z" fill="url(#ab)" fill-rule="evenodd"/>
    <path d="m384.69 135.64 0.13234 16.586s4.7486 0.81125 6.1296 0.65678 6.0958-3.9187 6.0958-3.9187l-0.87527-13.98c-1.332 0.19643-3.9747 2.418-5.7593 1.9991l-5.7232-1.3433z" fill="url(#aa)" fill-rule="evenodd"/>
    <path d="m385.31 152.14-0.62792 66.035s4.0639 1.2847 5.5907 1.1946c1.6589-0.0979 4.8418-1.5353 4.8418-1.5353l-0.41146-67.398c-1.3501 0.78349-2.1262 2.1434-4.2091 2.0172l-5.184-0.31397z" fill="#61b2e7" fill-rule="evenodd"/>
    <path d="m389.44 75.594c-1.6115 0.04237-3.2188 0.5-3.2188 0.5l-29.312 11.719c1e-5 -2e-6 -4.4819-7.8665-14.281-4.7812-9.37 2.947-10.63 13.937-10.63 13.937l-50.969 17.469c-1e-5 0-1.9466 0.83445-1.0625 2.1875 0.90296 1.382 3.25 1.4062 3.25 1.4062l103.28 18.15c-1e-5 0 3.1345 0.89118 4.3438 0.78125 1.2092-0.10993 4.0938-1.625 4.0938-1.625l40.031-16.75c-1e-5 0 2.6819-10.327 9.5312-13.188 6.9726-2.9117 10.25 3.6562 10.25 3.6562l35-14.656c1e-5 3e-6 2.8688-1.4746 1.7188-2.8438-1.0984-1.3076-5.2812-1.625-5.2812-1.625l-92.75-14.156c-0.0142 0.06206-1.7362-0.09759-3.3125-0.1875-0.22519-0.01284-0.45728-0.0061-0.6875 0zm-0.21875 4.0312c30.95 3.704 61.743 9.1297 92.594 13.75-7.7527 3.3646-15.638 6.4436-23.406 9.7812-2.1611 2.688-3.4798-0.33191-5.4375-1.375-9.4381-4.2373-18.481 4.6711-21.094 13.156-12.831 6.7882-27.65 11.752-41.219 17.906-33.284-5.7599-66.527-11.753-99.812-17.5 13.031-4.5949 26.218-8.8604 39.25-13.5 6.3671-1.271 6.007-6.0937 7.7188-9.8125 2.902-7.4062 15.492-7.498 17.25 0.78125 11.496-4.122 22.454-9.6722 34.156-13.188z" fill="url(#z)" fill-rule="evenodd"/>
    <path d="m385.13 151.41-0.4447 66.768s4.0639 1.2847 5.5907 1.1946c1.6589-0.0979 4.8418-1.5353 4.8418-1.5353l-0.8695-67.948c-1.3501 0.78349-2.133 2.2275-4.2091 2.0172l-4.9092-0.49719z" fill="url(#y)" fill-rule="evenodd"/>
    <path d="m384.69 135.64 0.31556 15.487s4.0157 0.99447 5.3968 0.84c1.381-0.15447 6.6454-3.0026 6.6454-3.0026l-0.87527-13.98c-1.332 0.19643-3.9747 2.418-5.7593 1.9991l-5.7232-1.3433z" fill="url(#x)" fill-rule="evenodd"/>
    <path d="m280.15 117.38 3.5312 16.531 2.1875 0.40625 3.1875 14c45.059 11.391 80.931 33.86 96.688 58.375l1.1875-53.656 0.40625 0.0625v-16.406l-1.125-0.28125-103.28-18.156c1e-5 1e-5 -1.7184-0.0157-2.7812-0.875zm35.625 22.469 32.125 5.9375c-0.17593 0.29644-3.533 5.9041-5.8438 5.5-2.3538-0.41161-20.476-3.3672-23.5-4.2188-2.805-0.78995-2.8115-5.9596-2.7812-7.2188z" fill="url(#w)" fill-rule="evenodd"/>
    <path transform="matrix(1 0 0 .80184 -.40438 29.948)" d="m385.35 151.49c0 7.6802 1.22 8.3937 5.6547 8.3937 4.4348 0 5.6547-3.4128 5.6547-11.093-0.16725-0.0717-1.0902 1.6963-5.838 2.9729-3.0404 0.0154-5.4607-0.18937-5.4715-0.27365z" fill="#2e3436" filter="url(#j)" opacity=".4"/>
    <path d="m285.3 133.42 0.30857 1.1999 100.12 20.935 0.24089-3.9518-100.67-18.183z" fill="url(#v)" fill-rule="evenodd" filter="url(#l)" opacity=".5"/>
    <path d="m387.67 89.645 35.207 6.8371 40.484 4.9689 17.284-7.912s-84.704-13.395-88.615-13.474c-3.6525-0.0731-3.8866 0.25911-3.8866 0.25911l-0.47376 9.3206z" fill="url(#u)" fill-rule="evenodd" opacity=".7"/>
    <path d="m392 89.455c-0.87047-0.06941-1.7386-0.12129-3.042 0.08464s-2.0824 1.0853-2.0824 1.0853l0.1875 0.96875s1.3523 0.18493 2.6341-0.01759 2.5875-0.32627 3.1807-0.27897c1.3676 0.10905 3.6403 0.55567 3.6403 0.55567l25.723 4.6006-2.0797-1-23.04-4.829s-3.5659-1.0456-5.1256-1.1699z" fill="url(#t)" fill-rule="evenodd" filter="url(#h)" opacity=".5"/>
   </g>
   <path d="m16.752 17.633 0.86352 1.0205 8.1642-9.8128c2.8062 0.34859 19.015 2.3378 19.155 3.1401 0.12638 0.72594-8.7922 11.932-8.7922 11.932l0.0785 0.94202 1.099-0.157 9.1848-12.325-0.31401-1.3345c-0.146-0.615-15.007-3.377-20.726-3.3749-1.919 0.8281-8.714 9.9699-8.714 9.9699z" fill-opacity=".4036" fill-rule="evenodd" filter="url(#a)"/>
   <path transform="matrix(.6899 0 0 .67067 -8.3968 28.542)" d="m67.368-6.2834c0 0.93016-0.75405 1.6842-1.6842 1.6842-0.93 0-1.684-0.754-1.684-1.6842 0-0.93016 0.75405-1.6842 1.6842-1.6842 0.93016 0 1.6842 0.75405 1.6842 1.6842z" fill-opacity=".4036" opacity=".7"/>
   <g transform="translate(.38866 -.32389)">
    <path d="m16.363 17.957 0.86352 1.0205 8.1642-9.8128c2.8062 0.34859 19.015 2.3378 19.155 3.1401 0.12638 0.72594-8.7922 11.932-8.7922 11.932l0.0785 0.94202 1.099-0.157 9.1848-12.325-0.31401-1.3345c-0.145-0.615-15.006-3.3771-20.725-3.375-1.9186 0.82807-8.7137 9.9698-8.7137 9.9698z" fill="url(#s)" fill-rule="evenodd"/>
    <path d="m16.972 18.138 7.967-9.4578" fill="none" filter="url(#a)" stroke="#FFF" stroke-opacity=".6536" stroke-width=".5"/>
    <path transform="matrix(.87605 0 0 .87605 4.4975 3.0821)" d="m36.534 24.615 8.907-12.243" fill="none" filter="url(#a)" stroke="#FFF" stroke-opacity=".675" stroke-width=".5"/>
   </g>
   <path transform="matrix(.6899 0 0 .67067 -30.062 24.649)" d="m67.368-6.2834c0 0.93016-0.75405 1.6842-1.6842 1.6842-0.93 0-1.684-0.754-1.684-1.6842 0-0.93016 0.75405-1.6842 1.6842-1.6842 0.93016 0 1.6842 0.75405 1.6842 1.6842z" fill-opacity=".4036" opacity=".7"/>
   <path transform="matrix(.48242 0 0 .46897 -16.371 23.309)" d="m67.368-6.2834c0 0.93016-0.75405 1.6842-1.6842 1.6842-0.93 0-1.684-0.754-1.684-1.6842 0-0.93016 0.75405-1.6842 1.6842-1.6842 0.93016 0 1.6842 0.75405 1.6842 1.6842z" fill="url(#n)"/>
  </g>
  <g transform="matrix(1.1733 0 0 1.1733 -1095.2 -5.298)">
   <path d="m1404.6 215.25v15.284h-14.433v142.59h-14.497v-15.284h-58.054v51.966h10.59v19.519l15.401 0.0318v35.536h15.53v31.842h15.531v29.327h15.466v45.757h149.78v0.0637h16.564v-40.822h15.498v-45.853h14.4v-123.31h-14.4v-16.749h-15.498v-12.798h-31.065v-15.284h-47.56v-15.284h-25.766v-71.874h-14.497v-14.679h-33.063z" filter="url(#ak)"/>
   <g transform="translate(-6,-14)">
    <path d="m1403.2 215.57v15.633h-14.834v145.84h-14.9v-15.633h-59.669v53.153h10.885v19.965l15.83 0.0326v36.347h15.962v32.569h15.963v29.996h15.896v46.802h153.95v0.0651h17.024v-41.746h15.929v-46.9h14.7v-126.11h-14.801v-17.131h-15.929v-13.093h-31.859v-15.633h-48.883v-15.633h-26.482v-73.509h-14.901v-15.014h-33.982z"/>
    <path d="m1403.6 219.77v15.284h-14.433v142.59h-14.497v-15.284h-58.054v51.966h10.59v19.519l15.401 0.0318v35.536h15.53v31.842h15.531v29.327h15.466v45.757h149.78v0.0637h16.564v-40.827h15.4v-45.853h14.4v-123.29h-14.4v-16.749h-15.498v-12.801h-30.997v-15.284h-47.56v-15.284h-25.766v-71.868h-14.497v-14.679h-33.063z" fill="#FFF"/>
    <path d="m1405.5 224.42v15h-13.972v139.94h-14.035v-15h-56.202v51h10.2v19.156l14.91 0.0312v34.875h15.035v31.25h15.035v28.781h14.973v44.906h145.01v0.0625h16.035v-40.062h15.004v-45h13.941v-121h-13.941v-16.438h-15.004v-12.562h-30.008v-15h-46.043v-15h-24.944v-70.531h-14.035v-14.406h-32.008zm0.7502 15.344h30.258v144.66h15.035v-60h24.944v60.812h15.035v-44.875h30.008v59.156h15.004v-45.156h15.004v15h14.754v115h-14.754v45h-15.035v30.062h-129v-35h-15.004v-30.031h-15.004v-30.031h-15.004v-34.906h-15.004v-15l-10.972-0.0312v-34.062h40.01v16.906h15.004v42.156h14.723v-199.66z"/>
   </g>
  </g>
 </g>
</svg>
