<?xml version="1.0" encoding="UTF-8"?>
<svg enable-background="new 162.1481 49.1402 1595.9025 1821.7686" version="1.1" viewBox="162.1481 49.1402 1595.9025 1821.7686" xmlns="http://www.w3.org/2000/svg">
 <g stroke-width=".3">
  <path d="m400.98 79.96c4.21-1.34 8.67-0.92 13.02-0.96 303.98-0.01 607.96 0.01 911.94-0.01 12.93 0.14 24.69 10.37 27.08 23 1.21 4.65-0.36 9.48 0.7999 14.13 0.91 3.46 0.3401 7.2 1.6801 10.55 63.45 139.19 126.91 278.38 190.37 417.57 1.84 4.49-1.59 9.03-3.66 12.87-6.77 10.35-15.48 19.25-24.17 27.99-9.73 9.85-20.58 18.75-33.1 24.81-24.26 12.03-53.06 14.5-79.04 6.88-15.65-4.45-30.12-12.65-42.29-23.4-0.2999-0.35-0.89-1.04-1.1799-1.39-26.9-151.83-53.8-303.65-80.68-455.48-56.98-0.04-113.96-0.01-170.94-0.01 15.18 151.83 30.4 303.66 45.6 455.49-13.38 9.9-25.95 21.34-41.46 27.86-29.23 13.11-64.25 12.36-92.87-2.04-13.49-6.45-24.61-16.61-36.6-25.35l0.83-0.68c-8.04-139.24-16.41-278.48-24.56-417.73-0.77-12.52-1.42-25.05-2.28-37.57-62.31 0.02-124.62 0-186.93 0.01-3.83 151.76-7.62 303.52-11.52 455.28 0.22 0.17 0.68 0.5099 0.91 0.68-11.49 7.96-22.67 16.38-34.37 24.03-34.08 21.38-80.07 21.4-114.2 0.11-11.55-7.53-22.59-15.81-33.88-23.72 0.34-0.24 1.01-0.72 1.34-0.96 11.68-151.79 23.08-303.61 34.73-455.41-56.3-0.02-112.6-0.01-168.9 0-23.1 151.83-46.21 303.65-69.32 455.48-22.06 22.11-54.36 33.34-85.43 30.53-22.57-1.82-44.49-10.97-61.61-25.81-12.98-11.69-26.06-23.55-36.44-37.69-2.58-4.18-6.27-8.79-5.45-13.95 63.66-139.68 127.37-279.34 191.02-419.03 1-3.29 0.66-6.85 1.32-10.22-0.91-5.79-1.33-11.85 0.75-17.45 2.9598-8.82 10.51-15.95 19.49-18.41z" fill="#E52929" stroke="#E52929"/>
  <path d="m377.33 591.99c23.11-151.83 46.22-303.65 69.32-455.48 56.3-0.01 112.6-0.02 168.9 0-11.65 151.8-23.05 303.62-34.73 455.41-0.33 0.24-1 0.72-1.34 0.96-13.99 8.69-27.32 18.67-42.63 24.99-31.38 13.62-67.54 15.67-100.34 6-14.58-4.29-28.5-10.86-41.07-19.4-5.19-3.54-10.33-7.16-15.5-10.72-0.87-0.6-1.74-1.19-2.61-1.76z" fill="#fff" stroke="#fff"/>
  <path d="m772.54 136.5c62.31-0.01 124.62 0.01 186.93-0.01 0.86 12.52 1.51 25.05 2.28 37.57 8.15 139.25 16.52 278.49 24.56 417.73l-0.83 0.68c-10.16 6.56-20.48 12.87-30.7 19.33-25.91 16.63-57.11 24.76-87.84 22.99-18.46-1.03-36.73-5.5099-53.52-13.25-12.23-5.73-23.6-13.08-35.35-19.69-5.37-3.16-10.8-6.19-16.14-9.39-0.23-0.17-0.69-0.51-0.91-0.68 3.9-151.76 7.69-303.52 11.52-455.28z" fill="#fff" stroke="#fff"/>
  <path d="m1110.8 136.51c56.98 0 113.96-0.03 170.94 0.01 26.88 151.83 53.78 303.65 80.68 455.48-3 1.9-5.9801 3.83-8.9 5.82-0.27 0.18-0.8 0.55-1.0701 0.73-12.16 8.12-24.46 16.28-38.22 21.51-5.64 2.24-11.42 4.12-17.27 5.69-35.65 9.39-74.77 4.93-107.26-12.56-11.6-6.24-22.19-14.15-33.3-21.19-15.2-151.83-30.42-303.66-45.6-455.49z" fill="#fff" stroke="#fff"/>
  <path d="m1156.4 592c11.11 7.04 21.7 14.95 33.3 21.19 32.49 17.49 71.61 21.95 107.26 12.56 0.05 6.43 0.02 12.86 0.03 19.29-36.51 10.16-76.94 4.75-109.6-14.41-4.7001-2.61-10.31-1.1-15.41-1.43-5.36 0.35-10.98-0.84-16.17 0.64-11.39 8.58-21.56 18.93-34.15 25.83-15.64 8.93-33.62 13.9-51.66 13.54-21.33 0.16-42.42-7.15-59.72-19.49-7.59-5.6899-14.8-11.86-22.13-17.88-1.74-1.45-3.72-2.8701-6.1-2.65-7.38-0.06-14.75 0.01-22.12-0.03-2.42-0.14-4.63 0.9301-6.57 2.25-14.25 9.54-30.41 16.09-47.08 19.96-12.9 3-26.2 3.66-39.4 3.46v-0.5c0-6.51-0.09-13.03 0.05-19.54 30.73 1.77 61.93-6.36 87.84-22.99 10.22-6.46 20.54-12.77 30.7-19.33 11.99 8.7401 23.11 18.9 36.6 25.35 28.62 14.4 63.64 15.15 92.87 2.04 15.51-6.52 28.08-17.96 41.46-27.86z" fill="#347190" stroke="#347190"/>
  <path d="m536.85 617.87c15.31-6.32 28.64-16.3 42.63-24.99 11.29 7.91 22.33 16.19 33.88 23.72 34.13 21.29 80.12 21.27 114.2-0.11 11.7-7.65 22.88-16.07 34.37-24.03 5.34 3.2 10.77 6.23 16.14 9.39 11.75 6.61 23.12 13.96 35.35 19.69 16.79 7.7401 35.06 12.22 53.52 13.25-0.14 6.51-0.05 13.03-0.05 19.54-25.18-0.92-49.76-9.69-70.84-23.31-3.23-2.31-7.31-1.84-11.04-1.84-6.68 0.11-13.37-0.16-20.04 0.03-3.66-0.07-6.1299 3.05-8.9 4.95-9.72 7.2401-19.06 14.98-29.05 21.84-17.71 11.48-38.9 17.75-60.04 16.96-19.72-0.7401-39.29-7.09-55.41-18.52-8.41-5.84-16.28-12.4-24.53-18.45-3.1-2.14-5.67-5.17-9.19-6.6-5.6-0.6-11.24 0-16.85-0.21-4.09 0.12-8.57-0.7-12.22 1.6-33.61 19.29-75.31 23.86-112.28 12.24-0.01-6.38-0.02-12.77 0.01-19.15 32.8 9.67 68.96 7.62 100.34-6z" fill="#216689" stroke="#216689"/>
  <path d="m379.94 593.75c5.17 3.56 10.31 7.18 15.5 10.72 12.57 8.54 26.49 15.11 41.07 19.4-0.03 6.38-0.02 12.77-0.01 19.15 0.01 271.99 0 543.98 0.01 815.96-0.45 5.1801 4.22 9.9401 9.41 9.53 140.31 0.01 280.61-0.01 420.91 0.01-0.05 17.28-0.19 34.56 0.05 51.83-18.52-0.59-37.23 5.3-51.86 16.72-12.76 9.78-22.45 23.48-27.44 38.75-5.65 17.23-5.29 36.37 1.03 53.37 6.63 17.95 19.89 33.38 36.7 42.55 12.6 7.03 27.13 10.41 41.54 10-0.1 14.41-0.18 28.84 0.01 43.26h-385.9c-9.99-0.23-20.06 0.7-29.95-1.0699-17.35-2.8501-33.71-11.33-46.07-23.83-15.14-14.93-24.32-35.78-24.93-57.05-0.02-342.71 0-685.42-0.02-1028.1-0.25-7.05-0.28-14.11-0.05-21.17z" fill="#1B2326" stroke="#1B2326"/>
  <path d="m1352.5 598.55c0.27-0.18 0.8-0.55 1.0701-0.73 0 116.73-0.02 233.46-0.01 350.19 0.08 97.68-0.15 195.37 0.12 293.05-5.09-6.8101-9.9-13.83-15.16-20.52-9.9-12.11-25.94-18.56-41.47-17.2-0.03-186.1 0-372.2-0.01-558.3 9.17-2.69 18.25-5.85 26.71-10.36 3.8101-1.69 7.2101-4.37 11.26-5.5 5.88-0.58 11.81 0.18 17.72-0.31 0.0999-10.11 0.1799-20.22-0.2301-30.32z" fill="#32393C" stroke="#32393C"/>
  <path d="m1314.2 620.06c13.76-5.23 26.06-13.39 38.22-21.51 0.41 10.1 0.3301 20.21 0.23 30.32-5.9099 0.49-11.84-0.27-17.72 0.31-4.0499 1.13-7.45 3.81-11.26 5.5-8.46 4.51-17.54 7.67-26.71 10.36-0.01-6.43 0.02-12.86-0.03-19.29 5.8499-1.57 11.63-3.45 17.27-5.69z" fill="#2F3436" stroke="#2F3436"/>
  <path d="m548.78 630.78c3.65-2.3 8.1299-1.48 12.22-1.6 5.61 0.21 11.25-0.39 16.85 0.21 3.52 1.43 6.09 4.46 9.19 6.6 8.25 6.05 16.12 12.61 24.53 18.45 16.12 11.43 35.69 17.78 55.41 18.52 21.14 0.79 42.33-5.48 60.04-16.96 9.99-6.86 19.33-14.6 29.05-21.84 2.77-1.9 5.24-5.02 8.9-4.95 6.67-0.19 13.36 0.08 20.04-0.03 3.73 0 7.81-0.47 11.04 1.84 21.08 13.62 45.66 22.39 70.84 23.31v0.5c-0.08 35.22-0.18 70.45 0 105.67-6.49 0.01-12.98-0.02-19.46 0.02 6.34 29.38 12.86 58.72 19.28 88.09 0.23 68.77 0.08 137.55 0.09 206.32-0.24 7.2599 0.62 14.58-0.57 21.79-8.42-4.75-13.56-14.08-13.77-23.65-1.05-21.01-0.61-42.06-0.71-63.08 0-16.33 0.01-32.66 0-48.99h-33.24c-0.03 30 0 60-0.01 90-0.13 11.76 0.33 23.58 2.15 35.22 1.06 7.7101 4.1 15.12 8.8 21.34 8.75 11.92 23.08 18.88 37.59 20.46-0.55 25.32-0.04 50.66-0.25 75.98-0.1 3.51 0.27 7.01 0.73 10.5-5.29 24.86-10.86 49.66-16.26 74.5 5.2 0 10.4-0.01 15.61 0-0.09 66.51-0.04 133.02-0.04 199.52-140.3-0.02-280.6 0-420.91-0.01-5.19 0.41-9.86-4.35-9.41-9.53-0.01-271.98 0-543.97-0.01-815.96 36.97 11.62 78.67 7.0499 112.28-12.24m-5.4 236.53c23.23 16.88 46.69 33.46 70.03 50.18 2.82 1.87 5.33 4.24 8.47 5.6-16.67-27.42-33.45-54.76-50.19-82.14-9.43 8.79-18.88 17.56-28.31 26.36m109.38 73.69c-0.02 55-0.02 110 0 165 24.39 0 48.79 0.01 73.19-0.01 9.31-0.4399 18.71-0.0699 27.93-1.6799 10.88-1.8601 21.12-7.8301 27.53-16.91 10.41-14.25 13.13-34.98 3.6801-50.39-5.45-9.23-15.06-15.11-25.11-18.18 14.15-6.14 23.43-21.5 22.8-36.84 0.17-20.02-16.91-37.75-36.6-39.74-13.98-1.92-28.12-1.06-42.18-1.25-17.08-1e-4 -34.16-0.0101-51.24-1e-4m-109.38 225.07c9.33 8.92 18.86 17.64 28.31 26.44 16.85-27.51 33.71-55.01 50.47-82.57-26.43 18.46-52.52 37.43-78.78 56.13z" fill="#2178A3" stroke="#2178A3"/>
  <path d="m953.37 631.41c1.94-1.3199 4.15-2.39 6.57-2.25 7.37 0.04 14.74-0.03 22.12 0.03 2.38-0.22 4.36 1.2 6.1 2.65 7.33 6.02 14.54 12.19 22.13 17.88 17.3 12.34 38.39 19.65 59.72 19.49 18.04 0.36 36.02-4.61 51.66-13.54 12.59-6.9 22.76-17.25 34.15-25.83 5.1901-1.48 10.81-0.29 16.17-0.64 5.1 0.33 10.71-1.18 15.41 1.43 32.66 19.16 73.09 24.57 109.6 14.41 0.01 186.1-0.02 372.2 0.01 558.3-15.91 1.4-30.74 10.98-39.3 24.34-10.1 15.95-9.75 37.92 1.2101 53.36 12.68 17.43 25.46 34.8 38.16 52.22-0.0699 3.47-0.1699 6.95-0.12 10.44-16.93-22.99-33.66-46.13-50.64-69.08-12.64-16.54-36.49-22.86-55.75-15.11-12.88 5.4-24.37 15.29-29.58 28.49-5.41 13.31-4.73 29.09 2.24 41.71 2.15 4.02 5.05 7.5601 7.71 11.26 15.16 20.73 30.32 41.46 45.49 62.19-1.7201 1.2-3.4301 2.4199-5.13 3.64-66.08-90.3-132.14-180.62-198.21-270.92-5.21-6.72-9.52-14.28-16.07-19.83-14.64-12.75-37.08-15.29-54.2-6.15-7.84 4.4-15.2 10.09-20.14 17.71-10.47 15.44-10.96 36.99-0.88 52.74 3.7 5.55 7.81 10.8 11.7 16.22 66.31 90.65 132.64 181.3 198.94 271.96-88.53-0.04-177.07-0.03-265.61-0.01 0-66.5-0.05-133.01 0.04-199.52 7.69 0 15.39-0.01 23.08 0-6.5-29.29-12.79-58.63-19.35-87.91-1.08 4.4501-2.0099 8.9501-3.08 13.41-0.46-3.49-0.83-6.99-0.73-10.5 0.21-25.32-0.3-50.66 0.25-75.98 10.93 1.33 22.02 1.35 32.98 0.39 15.82-1.54 32.08-8.79 40.83-22.59 7.4301-11.48 8.05-25.58 8.71-38.82 0.9-35.32 0.24-70.66 0.44-106-11.18 0-22.35-0.02-33.52 0.02 0.04 29.33 0 58.65 0.02 87.98-0.12 10.32-0.02 20.71-1.41 30.97-1.25 9.9301-9.57 18.13-19.34 19.86-9.81 1.74-20.51 1.61-29.52-3.11 1.19-7.21 0.33-14.53 0.57-21.79-0.01-68.77 0.14-137.55-0.09-206.32 6.65-29.33 12.94-58.74 19.4-88.1-6.41-0.02-12.82-0.01-19.22-0.01-0.18-35.22-0.08-70.45 0-105.67 13.2 0.2 26.5-0.46 39.4-3.46 16.67-3.8702 32.83-10.42 47.08-19.96m209.03 248.02c-6.29 16.96-13.24 33.72-19.13 50.81 22.37-22.96 44.57-46.1 66.79-69.21-10.82-6.94-21.73-13.73-32.51-20.73-5.41 12.89-10.03 26.12-15.15 39.13m-194.95 61.58c19.8 31.38 39.59 62.77 59.44 94.12 0.61 0.84 0.9 1.79 0.86 2.85 0.01 22.67-0.01 45.34 0.01 68.01 11.16 0.02 22.32 0.01 33.48 0 0.01-22.33 0.02-44.65-0.01-66.98-0.33-2.7 1.74-4.72 2.97-6.88 19.24-30.36 38.4-60.76 57.62-91.13h-38.7c-12.52 21.69-25.14 43.31-37.61 65.03-13-21.61-25.79-43.36-38.7-65.04-13.12 0.02-26.24-0.01-39.36 0.02m150.97 180.47c20.61 24.72 41.14 49.51 61.93 74.09 7.9301-10.18 16.15-20.14 24.06-30.34-28.72-14.48-57.18-29.48-85.99-43.75z" fill="#3886AC" stroke="#3886AC"/>
  <path d="m847.43 760.52c6.48-0.04 12.97-0.01 19.46-0.02 6.4 0 12.81-0.01 19.22 0.01-6.46 29.36-12.75 58.77-19.4 88.1-6.42-29.37-12.94-58.71-19.28-88.09z" fill="#FDC00F" stroke="#FDC00F"/>
  <path d="m543.38 867.31c9.43-8.8 18.88-17.57 28.31-26.36 16.74 27.38 33.52 54.72 50.19 82.14-3.14-1.36-5.65-3.73-8.47-5.6-23.34-16.72-46.8-33.3-70.03-50.18z" fill="#FDC00F" stroke="#FDC00F"/>
  <path d="m1162.4 879.43c5.12-13.01 9.74-26.24 15.15-39.13 10.78 7 21.69 13.79 32.51 20.73-22.22 23.11-44.42 46.25-66.79 69.21 5.89-17.09 12.84-33.85 19.13-50.81z" fill="#FDC00F" stroke="#FDC00F"/>
  <path d="m652.76 941c17.08-0.01 34.16 0 51.24 0 14.06 0.19 28.2-0.67 42.18 1.25 19.69 1.99 36.77 19.72 36.6 39.74 0.6299 15.34-8.65 30.7-22.8 36.84 10.05 3.07 19.66 8.95 25.11 18.18 9.45 15.41 6.73 36.14-3.6801 50.39-6.41 9.08-16.65 15.05-27.53 16.91-9.22 1.61-18.62 1.24-27.93 1.6799-24.4 0.02-48.8 0.01-73.19 0.01-0.0199-55-0.0199-110 1e-4 -165m33.49 28.01c0 12.66 0.01 25.32-0.01 37.98 12.59 0.21 25.16-0.35 37.74-0.25 6.58-0.15 13.75-0.38 19.22-4.52 9.58-6.78 9.41-23.58-0.77-29.7-5.84-3.48-12.9-3.07-19.44-3.28-12.25 0.19-24.49-0.43-36.74-0.23m0 66v42.99c15.28 0.0699 30.56-0.03 45.84-0.39 5.36-0.25 11.02-0.78 15.61-3.83 11.05-6.79 11.44-24.93 1.35-32.75-6.18-5-14.5-5.12-22.05-5.61-13.58-0.39-27.16-0.5-40.75-0.41z" fill="#fff" stroke="#fff"/>
  <path d="m818.51 941h33.24c0.01 16.33 0 32.66 0 48.99 0.1 21.02-0.34 42.07 0.71 63.08 0.21 9.5701 5.35 18.9 13.77 23.65 9.01 4.72 19.71 4.85 29.52 3.11 9.77-1.73 18.09-9.9299 19.34-19.86 1.39-10.26 1.29-20.65 1.41-30.97-0.02-29.33 0.02-58.65-0.02-87.98 11.17-0.04 22.34-0.02 33.52-0.02-0.2 35.34 0.46 70.68-0.44 106-0.66 13.24-1.28 27.34-8.71 38.82-8.75 13.8-25.01 21.05-40.83 22.59-10.96 0.96-22.05 0.9399-32.98-0.39-14.51-1.5801-28.84-8.54-37.59-20.46-4.7-6.2201-7.74-13.63-8.8-21.34-1.82-11.64-2.28-23.46-2.15-35.22 0.01-30-0.02-60 0.01-90z" fill="#fff" stroke="#fff"/>
  <path d="m967.45 941.01c13.12-0.03 26.24 0 39.36-0.02 12.91 21.68 25.7 43.43 38.7 65.04 12.47-21.72 25.09-43.34 37.61-65.03h38.7c-19.22 30.37-38.38 60.77-57.62 91.13-1.23 2.16-3.2999 4.1801-2.97 6.88 0.03 22.33 0.02 44.65 0.01 66.98-11.16 0.01-22.32 0.02-33.48 0-0.02-22.67 0-45.34-0.01-68.01 0.04-1.0599-0.25-2.01-0.86-2.85-19.85-31.35-39.64-62.74-59.44-94.12z" fill="#fff" stroke="#fff"/>
  <path d="m686.25 969.01c12.25-0.2 24.49 0.42 36.74 0.23 6.54 0.21 13.6-0.2 19.44 3.28 10.18 6.12 10.35 22.92 0.77 29.7-5.47 4.14-12.64 4.3701-19.22 4.52-12.58-0.1-25.15 0.46-37.74 0.25 0.02-12.66 0.01-25.32 0.01-37.98z" fill="#2178A3" stroke="#2178A3"/>
  <path d="m686.25 1035c13.59-0.09 27.17 0.02 40.75 0.41 7.55 0.49 15.87 0.61 22.05 5.61 10.09 7.8199 9.7 25.96-1.35 32.75-4.59 3.0499-10.25 3.58-15.61 3.83-15.28 0.36-30.56 0.46-45.84 0.39v-42.99z" fill="#2178A3" stroke="#2178A3"/>
  <path d="m942.82 1109.9c17.12-9.14 39.56-6.6 54.2 6.15 6.55 5.5499 10.86 13.11 16.07 19.83 66.07 90.3 132.13 180.62 198.21 270.92 1.7-1.2201 3.4099-2.4401 5.13-3.64-15.17-20.73-30.33-41.46-45.49-62.19-2.6599-3.7-5.5599-7.24-7.71-11.26-6.97-12.62-7.65-28.4-2.24-41.71 5.21-13.2 16.7-23.09 29.58-28.49 19.26-7.75 43.11-1.4301 55.75 15.11 16.98 22.95 33.71 46.09 50.64 69.08l0.24 0.4c1.6801-1.28 3.3301-2.62 5.01-3.9199-1.73-2.3101-3.4399-4.62-5.13-6.92-12.7-17.42-25.48-34.79-38.16-52.22-10.96-15.44-11.31-37.41-1.2101-53.36 8.5601-13.36 23.39-22.94 39.3-24.34 15.53-1.36 31.57 5.0901 41.47 17.2 5.26 6.6899 10.07 13.71 15.16 20.52 9.7999 13.39 19.59 26.8 29.4 40.19 1.6699-1.25 3.35-2.5 5.0399-3.74-7.22-9.98-14.53-19.89-21.79-29.82-5.5901-7.3899-9.2201-16.29-9.91-25.55-1.63-17.23 6.7-34.93 21.14-44.5 14.85-11.57 36.49-13.15 52.92-4.01 6.1801 3.4301 11.7 8.11 15.83 13.88 21.19 28.94 42.32 57.93 63.56 86.84-6.0199 3.6901-11.47 8.2001-17.22 12.29-91.26 66.71-182.46 133.5-273.73 200.2-15.76 11.74-31.92 22.96-47.41 35.04-13-17.8-26.01-35.57-39.03-53.35-66.3-90.66-132.63-181.31-198.94-271.96-3.89-5.4199-8-10.67-11.7-16.22-10.08-15.75-9.59-37.3 0.88-52.74 4.94-7.6199 12.3-13.31 20.14-17.71z" fill="#F9B23E" stroke="#F9B23E"/>
  <path d="m543.38 1166.1c26.26-18.7 52.35-37.67 78.78-56.13-16.76 27.56-33.62 55.06-50.47 82.57-9.45-8.8-18.98-17.52-28.31-26.44z" fill="#FDC00F" stroke="#FDC00F"/>
  <path d="m1118.4 1121.5c28.81 14.27 57.27 29.27 85.99 43.75-7.91 10.2-16.13 20.16-24.06 30.34-20.79-24.58-41.32-49.37-61.93-74.09z" fill="#FDC00F" stroke="#FDC00F"/>
  <path d="m867.52 1194.5c1.07-4.46 2-8.96 3.08-13.41 6.56 29.28 12.85 58.62 19.35 87.91-7.69-0.01-15.39 0-23.08 0-5.21-0.01-10.41 0-15.61 0 5.4-24.84 10.97-49.64 16.26-74.5z" fill="#FDC00F" stroke="#FDC00F"/>
  <path d="m1492.6 1286.6c5.75-4.09 11.2-8.6 17.22-12.29 18.69 25.55 37.38 51.1 56.08 76.65 4.09 5.85 8.71 11.37 12.46 17.44 19.2 74.1 38.33 148.23 57.37 222.38-69.39 50.79-138.76 101.59-208.22 152.3-30.63-16.98-61.33-33.86-91.93-50.88-1.87-1.0599-3.73-2.05-5.6-3.01-5.83 3.96-13.2 3.53-19.9 3.16-19.9-1.76-38.89-8.34-58.21-12.96-8.02-2.0801-16.05-4.1101-24.06-6.2001-6.46-32.09-13.12-64.14-19.61-96.21-0.62-2.5601-0.63-5.36-1.88-7.6801-11.81-15.68-23.26-31.63-34.86-47.46 15.49-12.08 31.65-23.3 47.41-35.04 91.27-66.7 182.47-133.49 273.73-200.2z" fill="#FAC165" stroke="#FAC165"/>
  <path d="m1297.1 1333.3c1.6901 2.3 3.4 4.61 5.13 6.92-1.6799 1.2999-3.33 2.6399-5.01 3.9199l-0.24-0.4c-0.05-3.4899 0.05-6.9699 0.12-10.44z" fill="#32393C" stroke="#32393C"/>
  <path d="m866.83 1468.5c88.54-0.02 177.08-0.03 265.61 0.01 13.02 17.78 26.03 35.55 39.03 53.35 11.6 15.83 23.05 31.78 34.86 47.46-1.2 2.29-3.37 3.75-5.35 5.28-18.12-25.07-36.24-50.13-54.33-75.21-3.79-5.49-8.7101-10.19-14.41-13.66-14.29-8.9301-33.29-9.67-48.18-1.72-9.41 5.14-17.92 12.51-22.81 22.2-8.28 15.68-7.12 35.89 3.24 50.34 18.13 25.16 36.33 50.26 54.46 75.42 3.52 5.08 7.7101 9.75 12.82 13.29 4.79 3.6599 10.87 4.71 16.47 6.5499 26.4 7.61 53.01 14.44 79.58 21.4 8.01 2.09 16.04 4.12 24.06 6.2001 19.32 4.62 38.31 11.2 58.21 12.96 6.7001 0.37 14.07 0.7999 19.9-3.16 1.87 0.96 3.73 1.9501 5.6 3.01-11.94 15.11-28.91 26.28-47.74 30.59-7.47 1.8-15.19 2.38-22.86 2.17h-398.13c-0.19-14.42-0.11-28.85-0.01-43.26 15.48-0.54 30.83-5.47 43.52-14.39 16.37-11.31 28.33-28.9 32.62-48.35 4.47-19.37 1.47-40.35-8.37-57.63-13.4-24.24-40.03-40.39-67.74-41.02-0.2401-17.27-0.1001-34.55-0.0501-51.83z" fill="#32393C" stroke="#32393C"/>
  <path d="m1084.1 1484c14.89-7.9501 33.89-7.2101 48.18 1.72 5.7 3.47 10.62 8.17 14.41 13.66 18.09 25.08 36.21 50.14 54.33 75.21 1.98-1.53 4.15-2.99 5.35-5.28 1.25 2.3201 1.26 5.12 1.88 7.6801 6.49 32.07 13.15 64.12 19.61 96.21-26.57-6.96-53.18-13.79-79.58-21.4-5.6-1.84-11.68-2.89-16.47-6.5499-5.11-3.54-9.3-8.2101-12.82-13.29-18.13-25.16-36.33-50.26-54.46-75.42-10.36-14.45-11.52-34.66-3.24-50.34 4.8901-9.6902 13.4-17.06 22.81-22.2z" fill="#F9B23E" stroke="#F9B23E"/>
  <path d="m815.02 1537.1c14.63-11.42 33.34-17.31 51.86-16.72 27.71 0.63 54.34 16.78 67.74 41.02 9.84 17.28 12.84 38.26 8.37 57.63-4.29 19.45-16.25 37.04-32.62 48.35-12.69 8.92-28.04 13.85-43.52 14.39-14.41 0.41-28.94-2.97-41.54-10-16.81-9.17-30.07-24.6-36.7-42.55-6.32-17-6.68-36.14-1.03-53.37 4.99-15.27 14.68-28.97 27.44-38.75z" fill="#FDC00F" stroke="#FDC00F"/>
  <path d="m1680.8 1557.8c3.17-2.66 8.5701-2.02 10.86 1.52 12.91 17.73 25.95 35.38 38.82 53.14 2.63 3.42 1.36 8.63-2.29 10.79-98.55 72.09-197.11 144.2-295.67 216.3-3.14 2.53-8.3501 1.9099-10.64-1.4601-12.96-17.69-25.92-35.38-38.83-53.1-2.45-3.1-1.86-8.0499 1.37-10.35 14.35-10.51 28.7-21.01 43.06-31.5 69.46-50.71 138.83-101.51 208.22-152.3 15-11.07 30.09-22.01 45.1-33.04z" fill="#1B2326" stroke="#1B2326"/>
 </g>
</svg>
